<?xml version="1.0" encoding="UTF-8"?>
<svg id="Layer_1" xmlns="http://www.w3.org/2000/svg" viewBox="0 0 400 400">
  <defs>
    <style>
      .cls-1 {
        fill: #fff;
      }

      .cls-2 {
        fill: #e6e6e6;
      }
    </style>
  </defs>
  <g>
    <path class="cls-2" d="M100.16,26.82C130.35,9.38,164.82.15,199.88.12v199.41L100.16,26.82Z"/>
    <path d="M199.75.25v198.82L100.33,26.86C130.44,9.49,164.8.29,199.75.25M200,0c-36.44,0-70.59,9.75-100.01,26.77l100.01,173.23V0h0Z"/>
  </g>
  <g>
    <path class="cls-2" d="M200.47,200.12h199.41c-.02,35.05-9.25,69.53-26.69,99.72l-172.72-99.72Z"/>
    <path d="M399.75,200.25c-.04,34.95-9.24,69.31-26.61,99.42l-172.2-99.42h198.82M400,200h-200l173.23,100.01c17.02-29.42,26.77-63.58,26.77-100.01h0Z"/>
  </g>
  <g>
    <path class="cls-2" d="M.12,199.88c.02-35.05,9.25-69.53,26.69-99.72l172.72,99.72H.12Z"/>
    <path d="M26.86,100.33l172.2,99.42H.25c.04-34.95,9.24-69.31,26.61-99.42M26.77,99.99C9.75,129.41,0,163.56,0,200h200L26.77,99.99h0Z"/>
  </g>
  <g>
    <path class="cls-1" d="M26.94,99.94c17.52-30.24,42.76-55.48,73-73l99.72,172.72L26.94,99.94Z"/>
    <path d="M99.89,27.11l99.42,172.2L27.11,99.89c17.49-30.14,42.65-55.29,72.78-72.78M99.99,26.77c-30.35,17.56-55.65,42.87-73.22,73.22l173.23,100.01L99.99,26.77h0Z"/>
  </g>
  <g>
    <path class="cls-1" d="M200.47,199.88l172.72-99.72c17.44,30.19,26.67,64.66,26.69,99.72h-199.41Z"/>
    <path d="M373.14,100.33c17.37,30.11,26.57,64.48,26.61,99.42h-198.82l172.2-99.42M373.23,99.99l-173.23,100.01h200c0-36.44-9.75-70.59-26.77-100.01h0Z"/>
  </g>
  <g>
    <path class="cls-2" d="M300.06,26.94c30.24,17.52,55.48,42.76,73,73l-172.72,99.72L300.06,26.94Z"/>
    <path d="M300.11,27.11c30.14,17.49,55.29,42.65,72.78,72.78l-172.2,99.42L300.11,27.11M300.01,26.77l-100.01,173.23,173.23-100.01c-17.56-30.35-42.87-55.65-73.22-73.22h0Z"/>
  </g>
  <g>
    <path class="cls-1" d="M200.12.12c35.05.02,69.53,9.25,99.72,26.69l-99.72,172.72V.12Z"/>
    <path d="M200.25.25c34.95.04,69.31,9.24,99.42,26.61l-99.42,172.2V.25M200,0v200L300.01,26.77C270.59,9.75,236.44,0,200,0h0Z"/>
  </g>
  <g>
    <path class="cls-2" d="M200.12,200.47l99.72,172.72c-30.19,17.44-64.66,26.67-99.72,26.69v-199.41Z"/>
    <path d="M200.25,200.93l99.42,172.2c-30.11,17.37-64.48,26.57-99.42,26.61v-198.82M200,200v200c36.44,0,70.59-9.75,100.01-26.77l-100.01-173.23h0Z"/>
  </g>
  <g>
    <path class="cls-1" d="M200.34,200.34l172.72,99.72c-17.52,30.24-42.76,55.48-73,73l-99.72-172.72Z"/>
    <path d="M200.68,200.68l172.2,99.42c-17.49,30.14-42.65,55.29-72.78,72.78l-99.42-172.2M200,200l100.01,173.23c30.35-17.56,55.65-42.87,73.22-73.22l-173.23-100.01h0Z"/>
  </g>
  <g>
    <path class="cls-1" d="M26.82,299.84C9.38,269.65.15,235.18.12,200.12h199.41L26.82,299.84Z"/>
    <path d="M199.07,200.25L26.86,299.67C9.49,269.56.29,235.2.25,200.25h198.82M200,200H0c0,36.44,9.75,70.59,26.77,100.01l173.23-100.01h0Z"/>
  </g>
  <g>
    <path class="cls-2" d="M99.94,373.06c-30.24-17.52-55.48-42.76-73-73l172.72-99.72-99.72,172.72Z"/>
    <path d="M199.32,200.68l-99.42,172.2c-30.14-17.49-55.29-42.65-72.78-72.78l172.2-99.42M200,200L26.77,300.01c17.56,30.35,42.87,55.65,73.22,73.22l100.01-173.23h0Z"/>
  </g>
  <g>
    <path class="cls-1" d="M199.88,399.88c-35.05-.02-69.53-9.25-99.72-26.69l99.72-172.72v199.41Z"/>
    <path d="M199.75,200.93v198.82c-34.95-.04-69.31-9.24-99.42-26.61l99.42-172.2M200,200l-100.01,173.23c29.42,17.02,63.58,26.77,100.01,26.77v-200h0Z"/>
  </g>
</svg>